<svg xmlns="http://www.w3.org/2000/svg" viewBox="0 0 1024 1024">
<defs><linearGradient id="tileG" x1="0" y1="0" x2="0" y2="1"><stop offset="0" stop-color="#1E1B18"></stop><stop offset="0.7" stop-color="#0F0D0B"></stop></linearGradient><linearGradient id="bookG" x1="0" y1="0" x2="1" y2="1"><stop offset="0" stop-color="#F7B26B"></stop><stop offset="1" stop-color="#B03618"></stop></linearGradient><linearGradient id="ringG" x1="0" y1="0" x2="1" y2="1"><stop offset="0" stop-color="#F7B26B"></stop><stop offset="1" stop-color="#B03618"></stop></linearGradient></defs>
<rect width="1024" height="1024" rx="208" fill="url(#tileG)"></rect>
<path d="M 276,583 A 396 396 0 0 0 345,193" fill="none" stroke="#CE422B" stroke-width="30" stroke-linecap="round" opacity="0.8"></path>
<path d="M 196,578 A 470 470 0 0 0 268,172" fill="none" stroke="#CE422B" stroke-width="25" stroke-linecap="round" opacity="0.55"></path>
<path d="M 112,543 A 544 544 0 0 0 177,176" fill="none" stroke="#CE422B" stroke-width="20" stroke-linecap="round" opacity="0.32"></path>
<g transform="translate(56,16)">
<path d="M 398,588 L 262,782 L 512,700 Z" fill="#CE422B" stroke="#CE422B" stroke-width="44" stroke-linejoin="round"></path>
<circle cx="592" cy="432" r="312" fill="#0F0D0B" stroke="url(#ringG)" stroke-width="36"></circle>
<path d="M 578,332 C 524,298 456,284 382,296 L 382,542 C 456,532 524,548 578,586 Z" fill="url(#bookG)"></path><path d="M 606,332 C 660,298 728,284 802,296 L 802,542 C 728,532 660,548 606,586 Z" fill="url(#bookG)"></path>
</g>
</svg>